<svg id="svg" version="1.1" xmlns="http://www.w3.org/2000/svg" xmlns:xlink="http://www.w3.org/1999/xlink" width="400" height="400" viewBox="0, 0, 400,400"><g id="svgg"><path id="path0" d="M72.800 205.800 L 72.800 358.400 200.800 358.400 L 328.800 358.400 328.800 205.800 L 328.800 53.200 200.800 53.200 L 72.800 53.200 72.800 205.800 M325.000 205.800 L 325.000 354.600 218.700 354.701 L 112.400 354.801 112.400 206.067 C 112.400 124.264,112.520 57.213,112.667 57.066 C 112.814 56.919,160.649 56.844,218.967 56.899 L 325.000 57.000 325.000 205.800 M108.400 205.800 L 108.400 354.400 92.600 354.400 L 76.800 354.400 76.800 205.800 L 76.800 57.200 92.600 57.200 L 108.400 57.200 108.400 205.800 M300.400 89.800 C 300.400 90.130,300.580 90.400,300.800 90.400 C 301.020 90.400,301.200 90.130,301.200 89.800 C 301.200 89.470,301.020 89.200,300.800 89.200 C 300.580 89.200,300.400 89.470,300.400 89.800 M138.984 90.900 C 138.880 91.175,138.840 109.670,138.897 132.000 L 139.000 172.600 219.900 172.701 L 300.800 172.802 300.800 133.021 L 300.800 93.240 298.500 93.120 C 296.226 93.001,296.199 92.985,296.075 91.700 L 295.949 90.400 217.562 90.400 C 155.221 90.400,139.136 90.502,138.984 90.900 M148.620 102.731 C 148.829 102.914,150.440 103.666,152.200 104.403 C 156.181 106.070,156.469 106.290,156.320 107.553 C 156.192 108.642,155.729 108.956,151.800 110.616 C 150.480 111.174,149.087 111.803,148.705 112.015 C 147.411 112.733,146.800 112.471,146.800 111.198 C 146.800 110.098,147.040 109.885,149.640 108.688 L 152.481 107.379 150.340 106.464 C 147.087 105.073,147.009 105.010,146.875 103.660 C 146.747 102.381,147.661 101.895,148.620 102.731 M168.000 116.800 L 168.000 118.000 162.387 118.000 C 157.768 118.000,156.734 117.894,156.545 117.400 C 155.926 115.788,156.535 115.600,162.387 115.600 L 168.000 115.600 168.000 116.800 " stroke="none" fill="#192356" fill-rule="evenodd"></path><path id="path1" d="M76.800 205.800 L 76.800 354.400 92.600 354.400 L 108.400 354.400 108.400 205.800 L 108.400 57.200 92.600 57.200 L 76.800 57.200 76.800 205.800 M135.200 131.600 L 135.200 176.400 220.000 176.400 L 304.800 176.400 304.800 134.800 L 304.800 93.200 302.800 93.200 L 300.800 93.200 300.800 133.001 L 300.800 172.802 219.900 172.701 L 139.000 172.600 139.000 131.600 L 139.000 90.600 217.500 90.499 L 296.000 90.398 296.000 88.599 L 296.000 86.800 215.600 86.800 L 135.200 86.800 135.200 131.600 M275.378 278.144 C 273.167 279.275,270.377 280.633,269.178 281.162 C 267.980 281.691,265.214 282.996,263.030 284.062 C 260.847 285.128,258.822 286.000,258.530 286.000 C 258.239 286.000,258.000 286.180,258.000 286.400 C 258.000 286.620,257.640 286.800,257.200 286.800 C 256.760 286.800,256.400 286.980,256.400 287.200 C 256.400 287.420,256.124 287.600,255.787 287.600 C 254.676 287.600,252.400 290.264,252.400 291.563 C 252.400 292.217,252.220 292.864,252.000 293.000 C 251.780 293.136,251.600 293.831,251.600 294.544 C 251.600 295.257,251.438 296.011,251.241 296.220 C 251.044 296.429,250.784 297.320,250.664 298.200 C 250.286 300.966,249.957 302.573,249.599 303.400 C 249.409 303.840,249.068 305.370,248.841 306.800 C 248.126 311.320,247.954 312.180,247.600 313.000 C 246.164 316.325,246.147 321.006,247.564 322.620 C 248.244 323.394,248.800 324.196,248.800 324.401 C 248.800 324.606,249.430 325.403,250.200 326.173 C 250.970 326.943,251.600 327.738,251.600 327.938 C 251.600 328.139,252.320 329.045,253.200 329.952 C 254.080 330.859,254.800 331.744,254.800 331.919 C 254.800 332.094,255.520 332.941,256.400 333.800 C 257.280 334.659,258.000 335.532,258.000 335.740 C 258.000 335.947,258.765 336.974,259.700 338.022 C 260.635 339.069,261.940 340.679,262.600 341.600 C 264.322 344.000,265.607 345.200,266.458 345.200 C 266.866 345.200,267.200 345.380,267.200 345.600 C 267.200 345.860,272.533 346.000,282.400 346.000 C 292.267 346.000,297.600 345.860,297.600 345.600 C 297.600 345.380,297.856 345.200,298.170 345.200 C 298.483 345.200,299.158 344.653,299.670 343.985 C 300.181 343.317,301.095 342.168,301.700 341.432 C 302.305 340.697,302.800 339.930,302.800 339.728 C 302.800 339.527,303.520 338.659,304.400 337.800 C 305.280 336.941,306.000 336.080,306.000 335.887 C 306.000 335.695,306.720 334.846,307.600 334.000 C 308.480 333.154,309.200 332.254,309.200 332.000 C 309.200 331.746,309.920 330.846,310.800 330.000 C 311.680 329.154,312.400 328.254,312.400 328.000 C 312.400 327.746,313.120 326.846,314.000 326.000 C 314.880 325.154,315.600 324.314,315.600 324.131 C 315.601 323.949,316.056 323.271,316.612 322.625 C 317.824 321.215,318.164 320.041,317.863 318.299 C 317.739 317.585,317.527 316.370,317.392 315.600 C 317.256 314.830,316.990 313.840,316.800 313.400 C 316.425 312.532,316.071 310.770,315.734 308.100 C 315.616 307.165,315.358 306.400,315.160 306.400 C 314.962 306.400,314.800 305.691,314.800 304.824 C 314.800 303.957,314.620 303.136,314.400 303.000 C 314.180 302.864,314.000 302.054,314.000 301.200 C 314.000 300.346,313.820 299.536,313.600 299.400 C 313.380 299.264,313.200 298.544,313.200 297.800 C 313.200 297.056,313.020 296.336,312.800 296.200 C 312.580 296.064,312.400 295.344,312.400 294.600 C 312.400 293.856,312.220 293.136,312.000 293.000 C 311.780 292.864,311.600 292.215,311.600 291.558 C 311.600 290.283,310.080 288.400,309.052 288.400 C 308.730 288.400,308.407 288.262,308.333 288.093 C 308.193 287.771,299.377 283.355,292.600 280.213 C 290.400 279.193,287.908 278.007,287.062 277.579 C 286.216 277.151,285.271 276.800,284.962 276.800 C 284.653 276.800,284.400 276.620,284.400 276.400 C 284.400 275.131,279.368 276.104,275.378 278.144 M283.120 284.880 C 283.715 285.475,283.742 287.872,283.173 289.506 C 282.563 291.255,283.911 292.800,286.049 292.800 C 286.876 292.800,287.664 292.980,287.800 293.200 C 287.936 293.420,288.487 293.600,289.024 293.600 C 289.561 293.600,290.000 293.780,290.000 294.000 C 290.000 294.220,290.360 294.400,290.800 294.400 C 291.240 294.400,291.600 294.580,291.600 294.800 C 291.600 295.020,291.842 295.200,292.138 295.200 C 292.434 295.200,293.002 295.560,293.400 296.000 C 293.798 296.440,294.338 296.800,294.600 296.800 C 294.862 296.800,295.402 297.160,295.800 297.600 C 296.897 298.812,297.646 298.587,299.800 296.400 C 300.883 295.300,302.056 294.400,302.405 294.400 C 304.116 294.400,304.674 297.315,303.100 298.027 C 299.092 299.841,298.449 301.038,300.000 303.800 C 300.440 304.583,300.800 305.579,300.800 306.012 C 300.800 306.445,300.980 306.800,301.200 306.800 C 301.420 306.800,301.600 307.802,301.600 309.026 C 301.600 310.251,301.793 311.614,302.029 312.055 C 302.322 312.601,302.332 313.219,302.061 313.996 C 301.461 315.719,303.672 317.200,306.847 317.200 C 308.421 317.200,309.600 317.885,309.600 318.800 C 309.600 319.533,308.528 320.400,307.623 320.400 C 306.818 320.400,306.436 320.261,304.505 319.262 C 302.443 318.196,301.783 318.637,299.959 322.297 C 298.425 325.375,296.488 327.865,294.887 328.821 C 294.164 329.252,293.457 329.919,293.316 330.302 C 293.174 330.686,292.865 331.149,292.629 331.330 C 292.331 331.560,292.353 331.723,292.700 331.864 C 292.975 331.975,293.200 332.346,293.200 332.686 C 293.200 333.027,293.516 333.597,293.903 333.953 C 295.389 335.321,295.808 336.708,295.004 337.596 C 294.045 338.655,292.392 338.658,292.116 337.600 C 292.001 337.160,291.748 336.800,291.553 336.800 C 291.359 336.800,291.200 336.260,291.200 335.600 C 291.200 334.940,291.020 334.400,290.800 334.400 C 290.580 334.400,290.400 334.117,290.400 333.771 C 290.400 332.413,288.637 331.523,287.735 332.425 C 287.164 332.996,276.895 332.977,276.205 332.404 C 275.481 331.804,273.600 332.713,273.600 333.664 C 273.600 334.069,273.420 334.400,273.200 334.400 C 272.980 334.400,272.800 334.940,272.800 335.600 C 272.800 336.260,272.620 336.800,272.400 336.800 C 272.180 336.800,272.000 337.160,272.000 337.600 C 272.000 338.670,269.991 338.695,269.034 337.637 C 268.376 336.910,268.396 336.792,269.461 335.137 C 272.028 331.150,272.015 330.898,269.132 328.605 C 268.029 327.727,266.935 326.647,266.700 326.205 C 266.466 325.762,265.943 325.109,265.537 324.753 C 265.132 324.397,264.800 323.812,264.800 323.453 C 264.800 323.094,264.665 322.799,264.500 322.797 C 264.186 322.794,263.200 320.894,263.200 320.292 C 263.200 319.170,260.766 318.284,260.200 319.200 C 260.064 319.420,259.513 319.600,258.976 319.600 C 258.439 319.600,258.000 319.780,258.000 320.000 C 258.000 320.647,255.927 320.458,255.131 319.738 C 253.831 318.561,254.534 317.453,256.818 317.082 C 261.527 316.316,261.600 316.241,261.600 312.175 C 261.600 310.345,261.780 308.736,262.000 308.600 C 262.220 308.464,262.400 307.911,262.400 307.371 C 262.400 306.831,262.557 306.077,262.750 305.695 C 264.236 302.745,264.800 301.451,264.800 300.991 C 264.800 300.470,262.100 298.431,260.700 297.894 C 260.194 297.699,260.000 297.179,260.000 296.013 C 260.000 293.581,261.566 293.726,264.200 296.400 C 266.560 298.797,266.798 298.821,268.984 296.900 C 270.942 295.180,273.733 293.600,274.814 293.600 C 275.220 293.600,275.664 293.420,275.800 293.200 C 275.936 292.980,276.568 292.800,277.205 292.800 C 279.948 292.800,280.400 292.208,280.400 288.616 C 280.400 285.310,280.745 284.400,282.000 284.400 C 282.352 284.400,282.856 284.616,283.120 284.880 M277.400 297.600 C 277.264 297.820,276.824 298.000,276.422 298.000 C 275.578 298.000,274.330 298.612,272.494 299.927 C 271.237 300.828,270.752 302.000,271.637 302.000 C 272.072 302.000,273.223 302.808,275.768 304.900 C 278.625 307.249,279.600 306.288,279.600 301.120 C 279.600 297.231,279.592 297.200,278.624 297.200 C 278.087 297.200,277.536 297.380,277.400 297.600 M283.986 297.974 C 284.214 298.399,284.400 300.379,284.400 302.374 C 284.400 306.751,284.878 306.999,288.308 304.398 C 289.468 303.519,290.561 302.800,290.738 302.800 C 290.916 302.800,291.447 302.389,291.919 301.886 L 292.777 300.973 291.733 300.189 C 288.844 298.019,283.137 296.387,283.986 297.974 M267.700 305.413 C 267.425 305.717,267.200 306.244,267.200 306.583 C 267.200 306.922,267.040 307.200,266.844 307.200 C 266.648 307.200,266.386 307.785,266.263 308.500 C 266.139 309.215,265.919 310.383,265.774 311.095 C 265.248 313.680,267.403 315.537,268.629 313.554 C 268.749 313.359,269.366 313.200,270.000 313.200 C 270.634 313.200,271.264 313.020,271.400 312.800 C 271.536 312.580,272.187 312.400,272.848 312.400 C 274.445 312.400,274.450 309.741,272.855 308.950 C 272.335 308.692,271.075 307.667,270.055 306.671 C 268.507 305.159,268.117 304.951,267.700 305.413 M292.235 307.645 C 290.566 309.209,289.200 310.662,289.200 310.873 C 289.200 311.597,290.343 312.400,291.371 312.400 C 291.937 312.400,292.400 312.580,292.400 312.800 C 292.400 313.020,292.929 313.200,293.576 313.200 C 294.223 313.200,294.864 313.380,295.000 313.600 C 295.944 315.127,297.600 313.977,297.600 311.794 C 297.600 309.536,296.846 306.400,296.303 306.400 C 296.136 306.400,296.000 306.040,296.000 305.600 C 296.000 304.328,295.462 304.620,292.235 307.645 M279.997 311.403 C 278.104 313.419,280.445 316.239,283.003 315.025 C 284.343 314.390,285.151 312.000,284.027 312.000 C 283.822 312.000,283.540 311.640,283.400 311.200 C 283.032 310.042,281.172 310.153,279.997 311.403 M272.400 317.600 C 272.070 317.813,270.967 317.991,269.949 317.994 C 267.007 318.004,266.502 320.327,268.993 322.394 C 269.327 322.671,269.600 323.064,269.600 323.267 C 269.600 323.709,271.142 325.226,272.214 325.837 C 272.995 326.283,274.000 325.133,274.000 323.792 C 274.000 323.346,274.628 321.914,276.063 319.084 C 276.795 317.642,274.054 316.531,272.400 317.600 M287.899 317.434 C 287.168 318.165,287.546 319.519,289.650 323.695 C 289.843 324.077,290.000 324.640,290.000 324.946 C 290.000 327.312,293.823 324.471,295.916 320.548 C 296.982 318.550,296.696 318.185,293.800 317.852 C 292.700 317.725,290.990 317.512,289.999 317.378 C 289.009 317.245,288.064 317.270,287.899 317.434 M281.050 321.145 C 280.057 322.242,277.600 327.179,277.600 328.077 C 277.600 328.730,278.023 328.800,282.000 328.800 C 284.420 328.800,286.400 328.648,286.400 328.463 C 286.400 327.867,283.627 322.638,282.690 321.467 C 281.784 320.336,281.783 320.335,281.050 321.145 " stroke="none" fill="#05a3ec" fill-rule="evenodd"></path><path id="path2" d="M0.000 200.000 L 0.000 400.000 200.000 400.000 L 400.000 400.000 400.000 200.000 L 400.000 0.000 200.000 0.000 L 0.000 0.000 0.000 200.000 M329.200 205.800 L 329.200 358.800 200.800 358.800 L 72.400 358.800 72.400 205.800 L 72.400 52.800 200.800 52.800 L 329.200 52.800 329.200 205.800 M112.800 205.800 L 112.800 354.400 218.800 354.400 L 324.800 354.400 324.800 205.800 L 324.800 57.200 218.800 57.200 L 112.800 57.200 112.800 205.800 M296.317 89.700 L 296.434 92.800 300.617 92.800 L 304.800 92.800 304.800 134.801 L 304.800 176.802 219.900 176.701 L 135.000 176.600 134.897 132.000 C 134.840 107.470,134.880 87.175,134.985 86.899 C 135.137 86.500,151.488 86.419,215.688 86.499 L 296.200 86.600 296.317 89.700 M302.276 89.691 L 302.247 91.600 300.747 91.600 C 299.236 91.600,298.430 91.076,299.206 90.596 C 299.443 90.450,299.521 89.785,299.385 89.060 C 299.148 87.798,299.165 87.782,300.725 87.782 L 302.305 87.782 302.276 89.691 M147.200 103.732 C 147.200 104.227,148.272 104.894,150.200 105.600 C 154.119 107.035,154.101 107.713,150.100 109.254 C 148.016 110.056,147.200 110.566,147.200 111.068 C 147.200 111.893,149.134 111.345,152.495 109.567 C 152.877 109.365,153.462 109.200,153.795 109.200 C 154.128 109.200,154.400 109.020,154.400 108.800 C 154.400 108.580,154.670 108.400,155.000 108.400 C 156.201 108.400,155.678 106.629,154.300 106.033 C 153.585 105.724,151.870 104.961,150.490 104.336 C 147.665 103.057,147.200 102.972,147.200 103.732 M157.200 116.800 C 157.200 117.557,157.467 117.600,162.200 117.600 C 166.933 117.600,167.200 117.557,167.200 116.800 C 167.200 116.043,166.933 116.000,162.200 116.000 C 157.467 116.000,157.200 116.043,157.200 116.800 M284.705 275.954 C 287.988 277.628,290.604 278.800,291.056 278.800 C 291.355 278.800,291.600 278.980,291.600 279.200 C 291.600 279.420,291.960 279.600,292.400 279.600 C 292.840 279.600,293.200 279.780,293.200 280.000 C 293.200 280.220,293.560 280.400,294.000 280.400 C 294.440 280.400,294.800 280.580,294.800 280.800 C 294.800 281.020,295.115 281.204,295.500 281.209 C 295.885 281.214,297.362 281.844,298.781 282.609 C 300.201 283.374,301.596 284.000,301.881 284.000 C 302.167 284.000,302.400 284.180,302.400 284.400 C 302.400 284.620,302.760 284.800,303.200 284.800 C 303.640 284.800,304.000 284.980,304.000 285.200 C 304.000 285.420,304.345 285.600,304.767 285.600 C 305.188 285.600,305.593 285.742,305.667 285.915 C 305.740 286.088,306.800 286.714,308.022 287.306 C 311.483 288.983,312.157 289.996,312.676 294.300 C 312.788 295.235,313.042 296.000,313.240 296.000 C 313.438 296.000,313.600 296.720,313.600 297.600 C 313.600 298.480,313.762 299.200,313.960 299.200 C 314.158 299.200,314.416 299.965,314.534 300.900 C 314.871 303.570,315.225 305.332,315.600 306.200 C 315.790 306.640,316.040 307.540,316.155 308.200 C 316.270 308.860,316.564 310.300,316.808 311.400 C 317.052 312.500,317.349 314.076,317.468 314.903 C 317.587 315.729,317.845 316.505,318.042 316.626 C 319.755 317.685,318.158 321.905,314.500 325.986 C 313.565 327.029,312.800 328.053,312.800 328.260 C 312.800 328.468,312.080 329.341,311.200 330.200 C 310.320 331.059,309.600 331.959,309.600 332.200 C 309.600 332.441,308.880 333.341,308.000 334.200 C 307.120 335.059,306.400 335.959,306.400 336.200 C 306.400 336.441,305.680 337.341,304.800 338.200 C 303.920 339.059,303.200 339.981,303.200 340.248 C 303.200 340.515,303.049 340.793,302.864 340.867 C 302.679 340.940,301.907 341.890,301.147 342.977 C 298.707 346.470,299.433 346.338,282.496 346.371 C 265.986 346.403,264.880 346.246,263.559 343.684 C 263.251 343.088,262.505 342.123,261.900 341.540 C 261.295 340.956,260.800 340.267,260.800 340.008 C 260.800 339.749,260.080 338.846,259.200 338.000 C 258.320 337.154,257.599 336.314,257.597 336.131 C 257.596 335.949,256.884 335.080,256.017 334.200 C 255.149 333.320,254.430 332.412,254.420 332.181 C 254.409 331.951,253.680 331.059,252.800 330.200 C 251.920 329.341,251.200 328.469,251.200 328.264 C 251.200 328.058,250.525 327.111,249.700 326.159 C 246.001 321.892,246.000 321.889,246.000 319.069 C 246.000 317.627,246.161 316.348,246.358 316.226 C 246.555 316.105,246.812 315.329,246.930 314.503 C 247.048 313.676,247.434 311.470,247.789 309.600 C 248.143 307.730,248.535 305.524,248.659 304.697 C 248.783 303.871,249.045 303.095,249.242 302.974 C 249.439 302.852,249.600 302.054,249.600 301.200 C 249.600 300.346,249.780 299.536,250.000 299.400 C 250.220 299.264,250.400 298.569,250.400 297.856 C 250.400 297.143,250.562 296.389,250.759 296.180 C 250.956 295.971,251.212 295.080,251.327 294.200 C 251.936 289.532,252.933 288.389,258.984 285.425 C 266.336 281.824,271.243 279.600,271.837 279.600 C 272.147 279.600,272.400 279.420,272.400 279.200 C 272.400 278.980,272.760 278.800,273.200 278.800 C 273.640 278.800,274.000 278.620,274.000 278.400 C 274.000 278.180,274.360 278.000,274.800 278.000 C 275.240 278.000,275.600 277.820,275.600 277.600 C 275.600 277.380,275.960 277.200,276.400 277.200 C 276.840 277.200,277.200 277.020,277.200 276.800 C 277.200 276.580,277.560 276.400,278.000 276.400 C 278.440 276.400,278.800 276.220,278.800 276.000 C 278.800 275.504,283.747 275.465,284.705 275.954 M281.300 285.060 C 280.957 285.202,280.800 286.304,280.800 288.571 C 280.800 292.481,280.313 293.200,277.669 293.200 C 276.751 293.200,276.000 293.380,276.000 293.600 C 276.000 293.820,275.460 294.000,274.800 294.000 C 274.140 294.000,273.600 294.180,273.600 294.400 C 273.600 294.620,273.240 294.800,272.800 294.800 C 272.360 294.800,272.000 294.950,272.000 295.132 C 272.000 295.315,271.505 295.720,270.900 296.032 C 270.295 296.345,269.323 297.095,268.740 297.700 C 267.213 299.283,266.238 299.098,264.000 296.800 C 261.613 294.349,260.400 294.147,260.400 296.200 C 260.400 297.195,260.579 297.600,261.017 297.600 C 261.356 297.600,261.851 297.791,262.117 298.024 C 262.383 298.257,263.185 298.794,263.900 299.218 C 265.174 299.973,265.860 302.400,264.800 302.400 C 264.580 302.400,264.400 302.760,264.400 303.200 C 264.400 303.640,264.220 304.000,264.000 304.000 C 263.780 304.000,263.600 304.439,263.600 304.976 C 263.600 305.513,263.420 306.064,263.200 306.200 C 262.980 306.336,262.800 306.941,262.800 307.544 C 262.800 308.147,262.628 308.812,262.418 309.022 C 262.208 309.232,261.983 310.925,261.918 312.784 L 261.800 316.164 259.800 316.881 C 258.700 317.274,257.327 317.597,256.749 317.598 C 255.289 317.601,254.518 318.575,255.332 319.389 C 256.136 320.193,256.718 320.160,258.706 319.200 C 261.836 317.687,262.646 318.088,264.560 322.097 C 265.691 324.467,270.400 329.600,271.444 329.600 C 272.703 329.600,271.332 333.752,269.302 336.082 C 268.595 336.894,269.388 338.002,270.671 337.997 C 271.353 337.994,272.400 336.410,272.400 335.382 C 272.400 333.287,275.013 331.041,276.424 331.922 C 277.431 332.551,286.111 332.556,287.845 331.929 C 289.560 331.309,291.600 333.235,291.600 335.476 C 291.600 336.343,292.831 338.000,293.475 338.000 C 295.146 338.000,295.238 335.212,293.600 334.200 C 292.676 333.629,292.030 331.541,292.516 330.692 C 293.188 329.515,294.682 328.000,295.169 328.000 C 295.719 328.000,298.397 324.263,299.613 321.800 C 301.200 318.585,303.582 317.152,304.600 318.800 C 304.736 319.020,305.197 319.200,305.624 319.200 C 306.051 319.200,306.400 319.380,306.400 319.600 C 306.400 320.223,308.244 320.070,308.800 319.400 C 309.606 318.429,308.593 317.600,306.600 317.600 C 302.333 317.600,301.459 316.579,301.305 311.413 C 301.240 309.220,301.009 307.249,300.793 307.033 C 300.577 306.817,300.400 306.321,300.400 305.932 C 300.400 305.543,300.040 304.583,299.600 303.800 C 298.153 301.223,298.559 300.279,302.108 297.978 C 303.700 296.946,303.954 295.829,302.768 295.086 C 302.269 294.773,301.728 295.125,300.213 296.745 C 298.404 298.679,296.000 299.639,296.000 298.427 C 296.000 298.222,295.634 297.938,295.187 297.796 C 294.740 297.654,293.938 297.102,293.405 296.569 C 292.872 296.036,292.158 295.600,291.818 295.600 C 291.478 295.600,291.199 295.465,291.197 295.300 C 291.193 294.899,289.219 294.000,288.344 294.000 C 287.961 294.000,287.536 293.820,287.400 293.600 C 287.264 293.380,286.477 293.200,285.652 293.200 C 283.730 293.200,282.150 291.365,282.605 289.663 C 283.480 286.392,282.913 284.394,281.300 285.060 M280.000 301.029 C 280.000 306.478,278.445 308.082,275.764 305.400 C 275.214 304.850,274.600 304.400,274.400 304.400 C 274.200 304.400,273.586 303.950,273.036 303.400 C 272.486 302.850,271.835 302.400,271.590 302.400 C 271.128 302.400,269.790 301.237,270.052 301.065 C 270.134 301.011,270.918 300.435,271.796 299.784 C 273.872 298.245,275.119 297.600,276.022 297.600 C 276.424 297.600,276.864 297.420,277.000 297.200 C 277.136 296.980,277.867 296.800,278.624 296.800 L 280.000 296.800 280.000 301.029 M287.451 297.425 C 290.551 298.676,291.430 299.168,292.388 300.187 L 293.364 301.226 292.299 302.213 C 291.714 302.756,291.023 303.200,290.764 303.200 C 290.506 303.200,290.003 303.524,289.647 303.919 C 286.155 307.800,284.264 307.288,283.976 302.384 C 283.852 300.285,283.616 298.350,283.452 298.084 C 282.625 296.746,284.857 296.378,287.451 297.425 M270.439 306.400 C 271.562 307.500,272.656 308.400,272.869 308.400 C 273.539 308.400,274.350 309.457,274.439 310.448 C 274.619 312.457,274.442 312.800,273.224 312.800 C 272.577 312.800,271.936 312.980,271.800 313.200 C 271.664 313.420,270.933 313.600,270.176 313.600 C 269.419 313.600,268.800 313.760,268.800 313.956 C 268.800 314.493,265.847 314.746,265.506 314.238 C 264.559 312.826,265.816 307.189,267.545 305.100 C 268.295 304.193,268.090 304.101,270.439 306.400 M296.934 306.500 C 298.037 308.833,298.595 313.245,297.879 313.961 C 297.330 314.510,294.933 314.538,294.600 314.000 C 294.464 313.780,293.924 313.600,293.400 313.600 C 292.876 313.600,292.336 313.420,292.200 313.200 C 292.064 312.980,291.573 312.800,291.108 312.800 C 290.118 312.800,288.800 311.721,288.800 310.911 C 288.800 310.202,294.692 304.400,295.412 304.400 C 295.703 304.400,296.388 305.345,296.934 306.500 M284.100 311.235 C 285.256 313.266,285.018 314.543,283.305 315.500 C 281.656 316.422,280.230 315.937,279.265 314.126 C 277.584 310.969,282.332 308.129,284.100 311.235 M276.220 317.622 C 276.833 318.300,276.879 318.581,276.482 319.217 C 276.217 319.642,276.000 320.262,276.000 320.595 C 276.000 320.928,275.820 321.200,275.600 321.200 C 275.380 321.200,275.200 321.549,275.200 321.976 C 275.200 322.403,275.020 322.864,274.800 323.000 C 274.580 323.136,274.400 323.687,274.400 324.224 C 274.400 324.761,274.220 325.200,274.000 325.200 C 273.780 325.200,273.600 325.560,273.600 326.000 C 273.600 326.444,273.333 326.800,273.000 326.800 C 272.670 326.800,272.400 326.620,272.400 326.400 C 272.400 326.180,272.144 326.000,271.831 326.000 C 271.095 326.000,268.755 323.259,267.547 320.983 C 266.270 318.576,266.722 317.869,269.710 317.598 C 270.935 317.487,272.072 317.262,272.236 317.098 C 272.877 316.457,275.475 316.799,276.220 317.622 M294.000 317.432 C 297.274 317.804,298.080 318.905,296.400 320.708 C 295.960 321.180,295.600 321.758,295.600 321.992 C 295.600 322.431,291.402 326.800,290.980 326.800 C 290.512 326.800,289.600 325.645,289.600 325.052 C 289.600 324.719,289.420 324.336,289.200 324.200 C 288.980 324.064,288.800 323.513,288.800 322.976 C 288.800 322.439,288.620 322.000,288.400 322.000 C 288.180 322.000,288.000 321.640,288.000 321.200 C 288.000 320.760,287.820 320.400,287.600 320.400 C 287.139 320.400,287.051 317.483,287.498 317.035 C 287.662 316.871,288.697 316.837,289.798 316.959 C 290.899 317.082,292.790 317.294,294.000 317.432 M283.372 321.303 C 287.968 329.026,287.925 329.250,281.900 329.112 L 277.000 329.000 277.088 327.804 C 277.137 327.146,277.362 326.546,277.588 326.471 C 277.815 326.395,278.000 325.988,278.000 325.567 C 278.000 325.145,278.180 324.800,278.400 324.800 C 278.620 324.800,278.800 324.440,278.800 324.000 C 278.800 323.560,278.980 323.200,279.200 323.200 C 279.420 323.200,279.600 322.924,279.600 322.586 C 279.600 320.413,282.297 319.495,283.372 321.303 " stroke="none" fill="#fbfbfc" fill-rule="evenodd"></path><path id="path3" d="M72.585 53.300 C 72.481 53.575,72.441 122.380,72.498 206.200 L 72.600 358.600 200.800 358.600 L 329.000 358.600 329.001 205.800 L 329.002 53.000 328.900 205.700 L 328.799 358.400 200.799 358.400 L 72.800 358.400 72.800 205.801 L 72.800 53.201 200.700 53.100 L 328.600 52.999 200.687 52.899 C 98.652 52.820,72.736 52.901,72.585 53.300 M112.667 57.066 C 112.520 57.213,112.400 124.264,112.400 206.067 L 112.400 354.801 218.700 354.701 L 325.000 354.600 325.000 205.800 L 325.000 57.000 218.967 56.899 C 160.649 56.844,112.814 56.919,112.667 57.066 M324.800 205.800 L 324.800 354.400 218.800 354.400 L 112.800 354.400 112.800 205.800 L 112.800 57.200 218.800 57.200 L 324.800 57.200 324.800 205.800 M299.885 89.202 C 300.000 89.643,299.892 90.249,299.644 90.548 C 299.276 90.990,299.494 91.091,300.822 91.091 C 301.973 91.091,302.326 90.966,302.025 90.665 C 301.791 90.431,301.600 89.826,301.600 89.320 C 301.600 88.615,301.375 88.400,300.637 88.400 C 299.871 88.400,299.718 88.563,299.885 89.202 M301.200 89.800 C 301.200 90.130,301.020 90.400,300.800 90.400 C 300.580 90.400,300.400 90.130,300.400 89.800 C 300.400 89.470,300.580 89.200,300.800 89.200 C 301.020 89.200,301.200 89.470,301.200 89.800 M296.161 92.000 C 296.198 92.948,296.325 93.001,298.600 93.029 L 301.000 93.057 298.725 92.910 C 296.753 92.783,296.428 92.646,296.286 91.882 C 296.150 91.148,296.129 91.168,296.161 92.000 M146.875 103.660 C 147.009 105.010,147.087 105.073,150.340 106.464 L 152.481 107.379 149.640 108.688 C 146.932 109.935,146.803 110.056,146.864 111.298 L 146.928 112.600 147.084 111.368 C 147.245 110.098,147.369 110.014,151.700 108.213 C 152.525 107.870,153.200 107.504,153.200 107.400 C 153.200 107.296,152.525 106.930,151.700 106.587 C 147.446 104.819,147.200 104.660,147.200 103.696 C 147.200 102.909,147.346 102.792,148.050 103.016 C 148.622 103.197,148.811 103.141,148.626 102.843 C 147.973 101.786,146.745 102.359,146.875 103.660 M151.200 104.189 C 151.200 104.506,154.100 105.633,154.328 105.405 C 154.441 105.292,154.435 105.200,154.316 105.200 C 154.196 105.200,153.446 104.928,152.649 104.595 C 151.852 104.262,151.200 104.079,151.200 104.189 M155.300 106.157 C 157.078 107.507,156.329 108.267,150.907 110.615 C 149.976 111.018,149.284 111.417,149.369 111.503 C 149.518 111.651,153.103 110.167,155.200 109.088 C 156.750 108.290,156.634 105.568,155.051 105.613 C 154.803 105.620,154.915 105.865,155.300 106.157 M156.667 115.867 C 156.305 116.228,156.328 117.508,156.700 117.738 C 156.865 117.840,157.000 117.401,157.000 116.762 C 157.000 116.123,156.985 115.600,156.967 115.600 C 156.948 115.600,156.813 115.720,156.667 115.867 M167.495 116.441 C 167.624 116.934,167.484 117.428,167.157 117.635 C 166.712 117.917,166.741 117.989,167.300 117.994 C 167.812 117.998,168.000 117.679,168.000 116.800 C 168.000 116.140,167.837 115.600,167.637 115.600 C 167.438 115.600,167.374 115.978,167.495 116.441 M277.400 297.200 C 277.264 297.420,276.758 297.614,276.276 297.632 C 275.772 297.650,275.629 297.754,275.939 297.878 C 276.236 297.996,276.866 297.905,277.339 297.676 C 277.813 297.446,278.470 297.170,278.800 297.061 C 279.179 296.936,279.077 296.852,278.524 296.832 C 278.042 296.814,277.536 296.980,277.400 297.200 M248.501 307.800 C 248.505 308.680,248.587 308.993,248.683 308.495 C 248.779 307.998,248.775 307.278,248.675 306.895 C 248.575 306.513,248.496 306.920,248.501 307.800 M247.693 311.600 C 247.693 312.370,247.775 312.685,247.876 312.300 C 247.976 311.915,247.976 311.285,247.876 310.900 C 247.775 310.515,247.693 310.830,247.693 311.600 M246.893 314.800 C 246.893 315.570,246.975 315.885,247.076 315.500 C 247.176 315.115,247.176 314.485,247.076 314.100 C 246.975 313.715,246.893 314.030,246.893 314.800 M303.978 338.300 L 302.600 339.800 304.100 338.422 C 305.496 337.138,305.784 336.800,305.478 336.800 C 305.412 336.800,304.737 337.475,303.978 338.300 " stroke="none" fill="#8c8c8c" fill-rule="evenodd"></path><path id="path4" d="M134.985 86.899 C 134.880 87.175,134.840 107.470,134.897 132.000 L 135.000 176.600 220.000 176.601 L 305.000 176.603 220.100 176.500 L 135.200 176.398 135.200 131.599 L 135.200 86.800 215.579 86.800 L 295.958 86.800 296.114 88.802 L 296.270 90.805 296.235 88.702 L 296.200 86.600 215.688 86.499 C 151.488 86.419,135.137 86.500,134.985 86.899 M299.385 89.060 C 299.521 89.785,299.443 90.450,299.206 90.596 C 298.390 91.100,299.270 91.600,300.924 91.572 C 302.208 91.550,302.413 91.466,301.800 91.210 C 301.360 91.026,300.550 90.979,300.000 91.104 C 299.106 91.308,299.058 91.262,299.547 90.668 C 299.848 90.303,300.000 89.643,299.885 89.202 C 299.718 88.563,299.871 88.400,300.637 88.400 C 301.391 88.400,301.600 88.612,301.600 89.376 C 301.600 90.961,302.192 90.852,302.284 89.250 C 302.368 87.788,302.361 87.782,300.757 87.782 C 299.161 87.782,299.147 87.794,299.385 89.060 M302.105 93.087 C 302.714 93.179,303.614 93.177,304.105 93.082 C 304.597 92.987,304.100 92.911,303.000 92.914 C 301.900 92.917,301.497 92.995,302.105 93.087 M156.949 116.188 C 156.333 117.795,156.954 118.004,162.087 117.914 L 167.000 117.827 162.100 117.701 C 157.535 117.584,157.200 117.522,157.200 116.788 C 157.200 115.553,167.048 115.571,167.325 116.806 C 167.476 117.477,167.497 117.460,167.453 116.706 C 167.384 115.528,157.392 115.035,156.949 116.188 M278.800 276.000 C 278.800 276.220,278.440 276.400,278.000 276.400 C 277.560 276.400,277.200 276.580,277.200 276.800 C 277.200 277.020,276.840 277.200,276.400 277.200 C 275.960 277.200,275.600 277.380,275.600 277.600 C 275.600 277.820,275.240 278.000,274.800 278.000 C 274.360 278.000,274.000 278.180,274.000 278.400 C 274.000 278.620,273.640 278.800,273.200 278.800 C 272.760 278.800,272.400 278.974,272.400 279.187 C 272.400 279.672,273.058 279.421,276.755 277.519 C 280.716 275.483,282.698 275.464,286.737 277.423 C 290.662 279.327,291.600 279.668,291.600 279.190 C 291.600 278.976,291.355 278.800,291.056 278.800 C 290.604 278.800,287.988 277.628,284.705 275.954 C 283.747 275.465,278.800 275.504,278.800 276.000 M268.872 280.672 C 267.702 281.225,266.825 281.758,266.923 281.856 C 267.125 282.058,271.600 280.079,271.600 279.788 C 271.600 279.463,271.063 279.637,268.872 280.672 M295.600 281.357 C 295.600 281.443,298.795 283.094,302.700 285.026 C 310.601 288.934,311.600 289.633,311.600 291.246 C 311.600 291.855,311.780 292.464,312.000 292.600 C 312.220 292.736,312.400 293.546,312.400 294.400 C 312.400 295.254,312.580 296.064,312.800 296.200 C 313.020 296.336,313.200 297.056,313.200 297.800 C 313.200 298.544,313.380 299.264,313.600 299.400 C 313.820 299.536,314.000 300.346,314.000 301.200 C 314.000 302.054,314.180 302.864,314.400 303.000 C 314.620 303.136,314.800 303.957,314.800 304.824 C 314.800 305.691,314.980 306.400,315.200 306.400 C 315.420 306.400,315.600 307.109,315.600 307.976 C 315.600 308.843,315.780 309.664,316.000 309.800 C 316.220 309.936,316.400 310.746,316.400 311.600 C 316.400 312.454,316.580 313.264,316.800 313.400 C 317.020 313.536,317.200 314.256,317.200 315.000 C 317.200 315.744,317.380 316.464,317.600 316.600 C 318.555 317.190,318.045 320.978,316.816 322.415 C 316.165 323.177,315.616 323.980,315.597 324.200 C 315.577 324.420,314.851 325.320,313.983 326.200 C 313.116 327.080,312.404 327.935,312.403 328.100 C 312.401 328.264,311.680 329.141,310.800 330.048 C 309.920 330.955,309.200 331.855,309.200 332.048 C 309.200 332.241,308.480 333.141,307.600 334.048 C 306.720 334.955,306.000 335.849,306.000 336.035 C 306.000 336.221,305.190 337.285,304.200 338.400 C 302.308 340.530,302.151 340.800,302.800 340.800 C 303.020 340.800,303.200 340.567,303.200 340.281 C 303.200 339.996,303.920 339.059,304.800 338.200 C 305.680 337.341,306.400 336.441,306.400 336.200 C 306.400 335.959,307.120 335.059,308.000 334.200 C 308.880 333.341,309.600 332.441,309.600 332.200 C 309.600 331.959,310.320 331.059,311.200 330.200 C 312.080 329.341,312.800 328.468,312.800 328.260 C 312.800 328.053,313.565 327.029,314.500 325.986 C 318.158 321.905,319.755 317.685,318.042 316.626 C 317.845 316.505,317.587 315.729,317.468 314.903 C 317.349 314.076,317.052 312.500,316.808 311.400 C 316.564 310.300,316.270 308.860,316.155 308.200 C 316.040 307.540,315.790 306.640,315.600 306.200 C 315.225 305.332,314.871 303.570,314.534 300.900 C 314.416 299.965,314.158 299.200,313.960 299.200 C 313.762 299.200,313.600 298.480,313.600 297.600 C 313.600 296.720,313.438 296.000,313.240 296.000 C 313.042 296.000,312.788 295.235,312.676 294.300 C 312.157 289.996,311.483 288.983,308.022 287.306 C 306.800 286.714,305.740 286.088,305.667 285.915 C 305.593 285.742,305.188 285.600,304.767 285.600 C 304.345 285.600,304.000 285.420,304.000 285.200 C 304.000 284.980,303.640 284.800,303.200 284.800 C 302.760 284.800,302.400 284.620,302.400 284.400 C 302.400 284.180,302.167 284.000,301.881 284.000 C 301.596 284.000,300.201 283.374,298.781 282.609 C 296.332 281.289,295.600 281.001,295.600 281.357 M260.271 284.769 C 252.739 288.488,252.011 289.257,251.336 294.200 C 251.216 295.080,250.956 295.971,250.759 296.180 C 250.562 296.389,250.400 297.143,250.400 297.856 C 250.400 298.569,250.220 299.264,250.000 299.400 C 249.780 299.536,249.600 300.346,249.600 301.200 C 249.600 302.054,249.439 302.852,249.242 302.974 C 248.793 303.252,248.468 306.400,248.889 306.400 C 249.060 306.400,249.200 305.680,249.200 304.800 C 249.200 303.920,249.362 303.200,249.560 303.200 C 249.758 303.200,250.016 302.435,250.134 301.500 C 250.471 298.830,250.825 297.068,251.200 296.200 C 251.390 295.760,251.641 294.860,251.758 294.200 C 252.360 290.803,252.615 290.159,253.842 288.931 C 254.574 288.199,255.449 287.600,255.787 287.600 C 256.124 287.600,256.400 287.420,256.400 287.200 C 256.400 286.980,256.760 286.800,257.200 286.800 C 257.640 286.800,258.000 286.620,258.000 286.400 C 258.000 286.180,258.360 286.000,258.800 286.000 C 259.240 286.000,259.600 285.820,259.600 285.600 C 259.600 285.380,259.887 285.200,260.238 285.200 C 260.589 285.200,261.354 284.871,261.938 284.470 C 262.522 284.068,263.630 283.499,264.400 283.206 C 265.862 282.648,266.858 281.985,266.180 282.020 C 265.971 282.030,263.312 283.268,260.271 284.769 M280.880 284.880 C 280.587 285.173,280.400 286.599,280.400 288.536 C 280.400 292.168,279.996 292.766,277.524 292.787 C 276.712 292.794,275.936 292.980,275.800 293.200 C 275.664 293.420,275.220 293.600,274.814 293.600 C 273.733 293.600,270.942 295.180,268.984 296.900 C 266.796 298.823,266.561 298.798,264.185 296.384 C 261.710 293.869,260.222 293.727,260.164 296.000 C 260.129 297.395,260.129 297.395,260.288 296.100 C 260.522 294.197,261.677 294.415,264.000 296.800 C 266.238 299.098,267.213 299.283,268.740 297.700 C 269.323 297.095,270.295 296.345,270.900 296.032 C 271.505 295.720,272.000 295.315,272.000 295.132 C 272.000 294.950,272.360 294.800,272.800 294.800 C 273.240 294.800,273.600 294.620,273.600 294.400 C 273.600 294.180,274.140 294.000,274.800 294.000 C 275.460 294.000,276.000 293.820,276.000 293.600 C 276.000 293.380,276.782 293.200,277.738 293.200 C 280.316 293.200,280.800 292.456,280.800 288.495 C 280.800 285.553,280.878 285.229,281.640 284.987 C 283.234 284.481,283.537 285.970,282.593 289.663 C 282.156 291.370,283.739 293.200,285.652 293.200 C 286.477 293.200,287.264 293.380,287.400 293.600 C 287.536 293.820,287.961 294.000,288.344 294.000 C 289.219 294.000,291.193 294.899,291.197 295.300 C 291.199 295.465,291.478 295.600,291.818 295.600 C 292.158 295.600,292.872 296.036,293.405 296.569 C 293.938 297.102,294.740 297.654,295.187 297.796 C 295.634 297.938,296.000 298.222,296.000 298.427 C 296.000 299.639,298.404 298.679,300.213 296.745 C 301.728 295.125,302.269 294.773,302.768 295.086 C 303.954 295.829,303.700 296.946,302.108 297.978 C 298.559 300.279,298.153 301.223,299.600 303.800 C 300.040 304.583,300.400 305.543,300.400 305.932 C 300.400 306.321,300.577 306.817,300.793 307.033 C 301.009 307.249,301.240 309.220,301.305 311.413 C 301.459 316.579,302.333 317.600,306.600 317.600 C 308.593 317.600,309.606 318.429,308.800 319.400 C 308.244 320.070,306.400 320.223,306.400 319.600 C 306.400 319.380,306.051 319.200,305.624 319.200 C 305.197 319.200,304.736 319.020,304.600 318.800 C 303.580 317.150,301.190 318.591,299.624 321.800 C 299.088 322.900,298.385 324.115,298.062 324.500 C 297.398 325.293,297.805 325.468,298.529 324.700 C 299.207 323.981,300.800 320.976,300.800 320.417 C 300.800 318.778,303.184 318.355,305.400 319.600 C 307.167 320.593,308.086 320.610,308.938 319.669 C 310.202 318.272,309.225 317.200,306.690 317.200 C 302.746 317.200,301.955 316.252,301.737 311.266 C 301.645 309.145,301.396 307.236,301.185 307.025 C 300.973 306.813,300.800 306.321,300.800 305.932 C 300.800 305.543,300.440 304.583,300.000 303.800 C 298.437 301.018,298.866 300.210,303.100 297.952 C 304.133 297.400,304.305 295.847,303.429 294.971 C 302.486 294.029,301.819 294.301,299.914 296.400 C 297.945 298.572,297.018 298.835,295.692 297.600 C 295.220 297.160,294.668 296.800,294.466 296.800 C 294.263 296.800,293.877 296.534,293.608 296.209 C 293.338 295.884,292.101 295.149,290.859 294.574 C 289.616 294.000,288.287 293.366,287.905 293.165 C 287.523 292.964,286.611 292.800,285.878 292.800 C 283.876 292.800,282.524 291.120,283.144 289.404 C 284.095 286.773,283.553 284.400,282.000 284.400 C 281.648 284.400,281.144 284.616,280.880 284.880 M279.527 300.825 C 279.694 306.105,278.730 307.262,275.964 305.100 C 272.931 302.728,272.400 302.359,272.400 302.623 C 272.400 302.988,274.023 304.400,274.443 304.400 C 274.619 304.400,275.214 304.850,275.764 305.400 C 276.875 306.511,278.550 306.707,279.429 305.829 C 280.041 305.216,280.294 296.801,279.700 296.799 C 279.535 296.799,279.457 298.610,279.527 300.825 M283.400 297.200 C 283.264 297.420,283.287 297.818,283.452 298.084 C 283.616 298.350,283.852 300.285,283.976 302.384 C 284.198 306.158,284.212 306.201,285.270 306.324 C 286.331 306.446,289.185 304.941,289.195 304.253 C 289.198 304.061,288.582 304.376,287.827 304.953 C 285.075 307.052,284.485 306.581,284.253 302.100 C 283.979 296.821,283.903 296.386,283.400 297.200 M261.651 298.300 C 262.178 298.685,262.955 299.192,263.378 299.427 C 265.191 300.433,265.127 301.071,262.756 305.695 C 262.560 306.077,262.400 306.831,262.400 307.371 C 262.400 307.911,262.220 308.464,262.000 308.600 C 261.780 308.736,261.600 310.331,261.600 312.144 C 261.600 315.650,261.273 316.400,259.744 316.400 C 259.251 316.400,258.736 316.580,258.600 316.800 C 258.464 317.020,257.761 317.200,257.038 317.200 C 255.102 317.200,254.001 318.496,255.000 319.600 C 255.797 320.480,256.789 320.613,258.005 320.000 C 258.442 319.780,259.158 319.420,259.595 319.200 C 261.283 318.350,263.200 319.079,263.200 320.571 C 263.200 320.917,263.380 321.200,263.600 321.200 C 263.820 321.200,264.000 321.560,264.000 322.000 C 264.000 322.440,264.180 322.800,264.400 322.800 C 264.620 322.800,264.800 323.067,264.800 323.393 C 264.800 324.265,267.735 327.535,269.775 328.937 C 270.365 329.342,271.008 330.096,271.205 330.613 C 271.568 331.568,271.428 331.957,269.544 335.200 C 269.097 335.970,268.995 336.330,269.318 336.000 C 271.230 334.047,272.707 329.600,271.444 329.600 C 270.400 329.600,265.691 324.467,264.560 322.097 C 262.646 318.088,261.836 317.687,258.706 319.200 C 256.718 320.160,256.136 320.193,255.332 319.389 C 254.518 318.575,255.289 317.601,256.749 317.598 C 257.327 317.597,258.700 317.274,259.800 316.881 L 261.800 316.164 261.918 312.784 C 261.983 310.925,262.208 309.232,262.418 309.022 C 262.628 308.812,262.800 308.147,262.800 307.544 C 262.800 306.941,262.980 306.336,263.200 306.200 C 263.420 306.064,263.600 305.513,263.600 304.976 C 263.600 304.439,263.780 304.000,264.000 304.000 C 264.220 304.000,264.400 303.640,264.400 303.200 C 264.400 302.760,264.580 302.400,264.800 302.400 C 265.860 302.400,265.174 299.973,263.900 299.218 C 263.185 298.794,262.383 298.257,262.117 298.024 C 261.851 297.791,261.422 297.600,261.163 297.600 C 260.904 297.600,261.123 297.915,261.651 298.300 M288.000 297.758 C 288.000 297.870,288.675 298.281,289.500 298.670 C 291.356 299.545,293.179 301.274,292.489 301.504 C 292.220 301.593,292.000 301.870,292.000 302.119 C 292.000 302.368,292.305 302.267,292.677 301.894 C 293.513 301.059,292.340 299.572,290.006 298.507 C 289.233 298.154,288.465 297.795,288.300 297.709 C 288.135 297.623,288.000 297.645,288.000 297.758 M272.302 299.391 C 271.699 299.923,270.901 300.528,270.530 300.735 C 269.771 301.160,270.604 302.400,271.648 302.400 C 271.934 302.400,271.816 302.140,271.376 301.800 C 270.708 301.283,270.684 301.148,271.200 300.834 C 272.322 300.151,274.202 298.401,273.800 298.413 C 273.580 298.420,272.906 298.860,272.302 299.391 M267.545 305.100 C 265.816 307.189,264.559 312.826,265.506 314.238 C 265.847 314.746,268.800 314.493,268.800 313.956 C 268.800 313.760,269.419 313.600,270.176 313.600 C 270.933 313.600,271.664 313.420,271.800 313.200 C 271.936 312.980,272.577 312.800,273.224 312.800 C 274.442 312.800,274.619 312.457,274.439 310.448 C 274.350 309.457,273.539 308.400,272.869 308.400 C 272.656 308.400,271.562 307.500,270.439 306.400 C 268.090 304.101,268.295 304.193,267.545 305.100 M291.841 307.373 C 290.168 309.008,288.800 310.600,288.800 310.911 C 288.800 311.721,290.118 312.800,291.108 312.800 C 291.573 312.800,292.064 312.980,292.200 313.200 C 292.336 313.420,292.876 313.600,293.400 313.600 C 293.924 313.600,294.464 313.780,294.600 314.000 C 294.933 314.538,297.330 314.510,297.879 313.961 C 299.058 312.782,296.896 304.400,295.412 304.400 C 295.120 304.400,293.514 305.738,291.841 307.373 M272.700 308.765 C 274.546 310.028,274.627 312.400,272.824 312.400 C 272.177 312.400,271.536 312.580,271.400 312.800 C 271.264 313.020,270.659 313.200,270.056 313.200 C 269.453 313.200,268.789 313.365,268.580 313.566 C 267.220 314.874,265.802 314.229,265.676 312.244 C 265.607 311.169,265.742 310.098,265.976 309.864 C 266.209 309.631,266.400 308.936,266.400 308.320 C 266.400 307.704,266.580 307.200,266.800 307.200 C 267.020 307.200,267.200 306.922,267.200 306.583 C 267.200 304.906,268.164 304.827,269.800 306.368 C 270.680 307.197,271.985 308.276,272.700 308.765 M296.329 306.100 C 296.617 306.815,297.021 307.713,297.226 308.095 C 297.432 308.477,297.600 309.962,297.600 311.395 L 297.600 314.000 296.224 314.000 C 295.467 314.000,294.736 313.820,294.600 313.600 C 294.464 313.380,293.949 313.200,293.456 313.200 C 292.963 313.200,292.389 313.035,292.180 312.834 C 291.971 312.632,291.368 312.407,290.841 312.334 C 288.515 312.009,288.810 310.934,292.092 307.776 C 295.639 304.362,295.630 304.366,296.329 306.100 M248.062 307.600 C 248.022 308.150,247.877 309.050,247.740 309.600 C 247.549 310.368,247.603 310.496,247.973 310.153 C 248.251 309.894,248.387 309.050,248.295 308.153 C 248.204 307.274,248.103 307.034,248.062 307.600 M279.670 310.926 C 277.382 313.361,280.381 317.135,283.305 315.500 C 285.018 314.543,285.256 313.266,284.100 311.235 C 283.195 309.646,281.015 309.493,279.670 310.926 M283.754 311.386 C 284.672 312.786,284.595 314.424,283.600 314.684 C 283.160 314.799,282.800 315.052,282.800 315.247 C 282.800 316.839,279.856 314.975,279.384 313.084 C 278.780 310.663,282.367 309.269,283.754 311.386 M246.267 316.267 C 246.120 316.413,246.000 317.694,246.000 319.112 C 246.000 321.882,246.010 321.901,249.700 326.159 C 250.525 327.111,251.200 328.058,251.200 328.264 C 251.200 328.469,251.920 329.341,252.800 330.200 C 253.680 331.059,254.409 331.951,254.420 332.181 C 254.430 332.412,255.149 333.320,256.017 334.200 C 256.884 335.080,257.596 335.949,257.597 336.131 C 257.599 336.314,258.320 337.154,259.200 338.000 C 260.080 338.846,260.800 339.740,260.800 339.987 C 260.800 340.512,262.766 342.568,263.023 342.311 C 263.118 342.215,262.748 341.714,262.198 341.199 C 261.649 340.683,261.200 340.058,261.200 339.811 C 261.200 339.564,260.480 338.659,259.600 337.800 C 258.720 336.941,258.000 336.094,258.000 335.919 C 258.000 335.744,257.280 334.859,256.400 333.952 C 255.520 333.045,254.800 332.145,254.800 331.952 C 254.800 331.759,254.080 330.859,253.200 329.952 C 252.320 329.045,251.600 328.127,251.600 327.912 C 251.600 327.697,251.105 327.044,250.500 326.460 C 247.235 323.313,246.335 321.579,246.472 318.699 C 246.542 317.214,246.585 315.999,246.567 315.999 C 246.548 316.000,246.413 316.120,246.267 316.267 M272.236 317.098 C 272.072 317.262,270.935 317.487,269.710 317.598 C 266.722 317.869,266.270 318.576,267.547 320.983 C 268.755 323.259,271.095 326.000,271.831 326.000 C 272.144 326.000,272.400 326.180,272.400 326.400 C 272.400 326.620,272.670 326.800,273.000 326.800 C 273.333 326.800,273.600 326.444,273.600 326.000 C 273.600 325.560,273.780 325.200,274.000 325.200 C 274.220 325.200,274.400 324.761,274.400 324.224 C 274.400 323.687,274.580 323.136,274.800 323.000 C 275.020 322.864,275.200 322.403,275.200 321.976 C 275.200 321.549,275.380 321.200,275.600 321.200 C 275.820 321.200,276.000 320.928,276.000 320.595 C 276.000 320.262,276.217 319.642,276.482 319.217 C 277.452 317.663,273.595 315.738,272.236 317.098 M287.498 317.035 C 287.051 317.483,287.139 320.400,287.600 320.400 C 287.820 320.400,288.000 320.760,288.000 321.200 C 288.000 321.640,288.180 322.000,288.400 322.000 C 288.620 322.000,288.800 322.439,288.800 322.976 C 288.800 323.513,288.980 324.064,289.200 324.200 C 289.420 324.336,289.600 324.719,289.600 325.052 C 289.600 325.645,290.512 326.800,290.980 326.800 C 291.402 326.800,295.600 322.431,295.600 321.992 C 295.600 321.758,295.960 321.180,296.400 320.708 C 298.080 318.905,297.274 317.804,294.000 317.432 C 292.790 317.294,290.899 317.082,289.798 316.959 C 288.697 316.837,287.662 316.871,287.498 317.035 M275.842 317.784 C 276.245 318.188,276.314 318.591,276.063 319.084 C 274.628 321.914,274.000 323.346,274.000 323.792 C 274.000 325.208,273.018 326.235,272.103 325.778 C 270.836 325.144,269.600 323.964,269.600 323.387 C 269.600 323.118,269.327 322.671,268.993 322.394 C 266.467 320.298,267.007 318.000,270.025 318.000 C 271.085 318.000,272.064 317.820,272.200 317.600 C 272.576 316.991,275.180 317.123,275.842 317.784 M293.881 317.845 C 296.593 318.141,297.149 318.786,296.037 320.348 C 295.577 320.994,295.200 321.682,295.200 321.875 C 295.200 322.716,290.895 326.478,290.550 325.939 C 289.759 324.705,289.200 323.475,289.200 322.966 C 289.200 322.668,288.840 321.783,288.400 321.000 C 287.960 320.217,287.600 319.024,287.600 318.349 L 287.600 317.123 289.700 317.371 C 290.855 317.507,292.736 317.720,293.881 317.845 M280.500 321.010 C 280.005 321.539,279.600 322.248,279.600 322.586 C 279.600 322.924,279.420 323.200,279.200 323.200 C 278.980 323.200,278.800 323.560,278.800 324.000 C 278.800 324.440,278.620 324.800,278.400 324.800 C 278.180 324.800,278.000 325.145,278.000 325.567 C 278.000 325.988,277.815 326.395,277.588 326.471 C 277.362 326.546,277.137 327.146,277.088 327.804 L 277.000 329.000 281.900 329.112 C 286.384 329.215,286.797 329.164,286.768 328.512 C 286.750 328.093,286.654 328.006,286.535 328.300 C 286.324 328.824,277.200 329.064,277.200 328.545 C 277.200 327.868,280.484 321.648,281.169 321.029 C 281.999 320.277,282.800 320.470,282.800 321.424 C 282.800 321.741,282.958 322.000,283.151 322.000 C 283.345 322.000,283.727 322.540,284.000 323.200 C 284.273 323.860,284.645 324.400,284.825 324.400 C 285.005 324.400,284.927 323.995,284.651 323.500 C 282.486 319.613,282.052 319.353,280.500 321.010 M296.460 326.805 C 295.974 327.462,295.389 328.000,295.159 328.000 C 294.661 328.000,293.432 329.166,293.675 329.409 C 293.939 329.672,297.830 326.115,297.572 325.847 C 297.446 325.717,296.946 326.148,296.460 326.805 M292.534 330.620 C 292.070 331.612,292.669 333.624,293.600 334.200 C 295.238 335.212,295.146 338.000,293.475 338.000 C 292.831 338.000,291.600 336.343,291.600 335.476 C 291.600 333.235,289.560 331.309,287.845 331.929 C 286.111 332.556,277.431 332.551,276.424 331.922 C 275.013 331.041,272.400 333.287,272.400 335.382 C 272.400 336.554,271.354 337.994,270.500 337.997 C 270.005 337.999,269.600 337.820,269.600 337.600 C 269.600 337.380,269.398 337.200,269.151 337.200 C 268.841 337.200,268.856 337.385,269.200 337.800 C 269.940 338.692,271.632 338.566,271.884 337.600 C 271.999 337.160,272.252 336.800,272.447 336.800 C 272.641 336.800,272.800 336.260,272.800 335.600 C 272.800 334.940,272.980 334.400,273.200 334.400 C 273.420 334.400,273.600 334.070,273.600 333.668 C 273.600 332.582,275.435 331.704,276.419 332.319 C 277.445 332.960,286.931 332.975,287.952 332.337 C 289.204 331.555,291.200 333.437,291.200 335.400 C 291.200 337.733,293.576 339.173,294.940 337.666 C 295.613 336.923,295.051 334.849,294.000 334.200 C 293.191 333.700,292.398 331.484,292.839 330.954 C 293.079 330.664,293.214 330.247,293.138 330.027 C 293.062 329.806,292.790 330.074,292.534 330.620 M301.300 341.798 C 301.025 342.111,300.800 342.509,300.800 342.683 C 300.799 343.314,298.891 345.200,298.253 345.200 C 297.894 345.200,297.600 345.380,297.600 345.600 C 297.600 345.860,292.337 346.000,282.612 346.000 C 266.271 346.000,265.979 345.961,263.900 343.530 C 263.515 343.080,263.200 342.877,263.200 343.080 C 263.200 343.760,264.820 345.198,266.266 345.802 C 267.454 346.298,270.225 346.395,282.549 346.371 C 299.374 346.338,298.709 346.456,301.086 343.077 C 302.308 341.340,302.450 340.492,301.300 341.798 " stroke="none" fill="#d4d4d4" fill-rule="evenodd"></path></g></svg>